<?xml version="1.0" encoding="utf-8"?>
<!-- Generator: Adobe Illustrator 23.0.1, SVG Export Plug-In . SVG Version: 6.00 Build 0)  -->
<svg version="1.1" id="_x2014_ÎÓÈ_x5F_1" xmlns="http://www.w3.org/2000/svg" xmlns:xlink="http://www.w3.org/1999/xlink"
	 x="0px" y="0px" viewBox="0 0 1450 800" style="enable-background:new 0 0 1450 800;" xml:space="preserve">
<style type="text/css">
	.st0{fill:#FFFFFF;}
	.st1{fill:#F8F7FF;}
	.st2{fill:#40327A;}
	.st3{fill:#DDD6FF;}
	.st4{fill:#7760DB;}
	.st5{fill:#AB9AF7;}
	.st6{fill:#FF95A9;}
	.st7{fill:none;}
	.st8{fill:#2FC2A7;}
	.st9{fill:#FFC359;}
	.st10{fill:#FF809F;}
	.st11{fill:#C4B8FF;}
</style>
<rect x="0" y="0" class="st0" width="1450" height="800"/>
<path class="st1" d="M182.2,663c0,0-158-70.23-92-137.3s290.65-63.02,271.65-137.78S295.7,288.1,326.3,231.37
	c36.73-68.1,144.2-12.85,196.24,11c96.76,44.33,203.98,49.25,166.82-12.75c-37.16-62-76.44-85.67-41.16-121
	c48.02-48.09,254.07,93,367.08,232.39c67.63,83.42,116.92,25.38,110.08-28.22c-4.35-34.07-52.26-104.36-2-136.17
	c48.44-30.67,161.58,64.37,200.01,123.05C1424,453.3,1310.2,663,1310.2,663H182.2z"/>
<path class="st1" d="M182.7,663c0,0-158-70.23-92-137.3s290.65-63.02,271.65-137.78S296.2,288.1,326.8,231.37
	c36.73-68.1,144.2-12.85,196.24,11c96.76,44.33,203.98,49.25,166.82-12.75c-37.16-62-76.44-85.67-41.16-121
	c48.02-48.09,254.07,93,367.08,232.39c67.63,83.42,116.92,25.38,110.08-28.22c-4.35-34.07-52.26-104.36-2-136.17
	c48.44-30.67,161.58,64.37,200.01,123.05C1424.5,453.3,1310.7,663,1310.7,663H182.7z"/>
<polygon class="st2" points="905.18,402.08 902.96,449.66 902.96,449.67 902.69,455.51 902.27,464.58 901.99,470.58 805.99,470.58 
	806.27,464.58 809.18,402.08 "/>
<g>
	<defs>
		<polygon id="SVGID_1_" points="872.62,470.58 776.62,470.58 779.82,402.08 875.82,402.08 		"/>
	</defs>
	<clipPath id="SVGID_2_">
		<use xlink:href="#SVGID_1_"  style="overflow:visible;"/>
	</clipPath>
</g>
<polygon class="st3" points="902.27,464.58 901.99,470.58 761.87,470.58 761.87,464.58 "/>
<polygon class="st4" points="902.96,449.67 902.69,455.51 902.27,464.58 807.24,464.58 810.51,464.07 "/>
<polygon class="st5" points="801.12,536.03 859.87,536.23 860.78,513.13 802.2,508.76 "/>
<g>
	<polygon class="st6" points="853.72,443.59 776.47,458.71 777.62,470.6 781.67,470.61 787.66,470.6 856.32,470.62 	"/>
	<polygon class="st6" points="777.61,470.6 776.47,458.71 781.67,457.69 781.67,470.6 	"/>
</g>
<g>
	<path class="st6" d="M798.2,378.18h-33.18v-36.34c0-11.05,8.96-20.01,20.01-20.01l0,0c10.68,0,20.38,8.38,20.9,19.05l1.34,27.78
		C807.53,373.83,803.39,378.18,798.2,378.18z"/>
	<path class="st6" d="M807.28,368.65c0.25,5.18-3.89,9.52-9.08,9.52h-33.17v-36.34c0-11.05,8.96-20.01,20.01-20.01
		c5.33,0,11.11,2.1,14.7,5.53c3.6,3.43,5.93,8.19,6.19,13.51L807.28,368.65z"/>
	<path class="st4" d="M811.4,324.45v10.81c0,0.84-0.1,1.65-0.3,2.42h-20.33v-24.13h9.72C806.52,313.55,811.4,318.43,811.4,324.45z"
		/>
	<path class="st7" d="M806.77,358.14l-0.84-17.27L806.77,358.14z"/>
	<path class="st4" d="M773.2,318.41h2.72v34.21h-20.9v-16.04C755.03,326.55,763.17,318.41,773.2,318.41z"/>
	<path class="st4" d="M808.79,335.36h-21.61c-8.44,0-15.3-6.86-15.3-15.3c0-4.02,3.26-7.27,7.27-7.27s7.27,3.26,7.27,7.27
		c0,0.42,0.34,0.76,0.76,0.76h21.61V335.36z"/>
	<path class="st4" d="M801.06,328.09h-11.21c-4.02,0-7.27-3.26-7.27-7.27c0-4.02,3.26-7.27,7.27-7.27h11.21
		c4.02,0,7.27,3.26,7.27,7.27C808.34,324.84,805.08,328.09,801.06,328.09z"/>
	<path class="st4" d="M817.3,332.18c0,6.05-4.91,10.96-10.96,10.96c-6.05,0-11.77-4.91-11.77-10.96c0-6.05,5.72-10.96,11.77-10.96
		C812.39,321.22,817.3,326.13,817.3,332.18z"/>
	<rect x="770.99" y="329.65" class="st4" width="30.29" height="11.36"/>
	<rect x="771.86" y="340.86" class="st4" width="23.4" height="14.49"/>
	<path class="st4" d="M780.55,368.94h-13.1c-6.86,0-12.43-5.56-12.43-12.43v-6.62h34.78v9.79
		C789.81,364.8,785.66,368.94,780.55,368.94z"/>
	<path class="st6" d="M777.53,406.88L777.53,406.88c-6.9,0-12.5-5.6-12.5-12.5v-25.44h25v25.44
		C790.03,401.28,784.43,406.88,777.53,406.88z"/>
	<path class="st6" d="M795.26,360.8h5.45V349.9h-5.45c-3.01,0-5.45,2.44-5.45,5.45l0,0C789.81,358.36,792.25,360.8,795.26,360.8z"/>
	<path class="st4" d="M803.37,336.86h-13.56v13.04h6.28c4.02,0,7.28-3.26,7.28-7.28V336.86z"/>
	<circle class="st6" cx="777.53" cy="394.38" r="12.5"/>
</g>
<ellipse transform="matrix(0.7071 -0.7071 0.7071 0.7071 -213.0091 789.741)" class="st8" cx="846.8" cy="652" rx="8.44" ry="8.44"/>
<g>
	<g>
		<circle class="st5" cx="859.91" cy="524.66" r="11.57"/>
	</g>
</g>
<polygon class="st5" points="838.37,651.33 848.37,524 871.43,525.81 855.2,652.66 "/>
<path class="st4" d="M863.74,662h-25.38v-10h16.89l9.69,5.29c0.81,0.44,1.31,1.29,1.31,2.2l0,0C866.25,660.87,865.12,662,863.74,662
	z"/>
<ellipse transform="matrix(0.9731 -0.2306 0.2306 0.9731 -128.8478 201.484)" class="st5" cx="797.59" cy="652" rx="8.44" ry="8.44"/>
<g>
	<g>
		<circle class="st5" cx="810.7" cy="524.66" r="11.57"/>
	</g>
</g>
<polygon class="st5" points="789.16,651.33 799.16,524 822.22,525.81 805.99,652.66 "/>
<path class="st4" d="M814.53,662h-25.38v-10h16.89l9.69,5.29c0.81,0.44,1.31,1.29,1.31,2.2l0,0C817.04,660.87,815.92,662,814.53,662
	z"/>
<polygon class="st3" points="1102.67,510.59 1058.73,662 1053.68,662 1089.61,510.59 "/>
<polygon class="st3" points="1148.62,510.59 1192.56,662 1197.61,662 1161.68,510.59 "/>
<circle class="st9" cx="1125.64" cy="488.99" r="74"/>
<path class="st10" d="M1196.86,512.56l-1.9-0.63c1.3-3.94,2.27-8.02,2.88-12.13l1.98,0.29
	C1199.2,504.32,1198.2,508.51,1196.86,512.56z"/>
<path class="st10" d="M1125.64,563.99c-11.99,0-23.44-2.74-34.04-8.15l0.91-1.78c10.32,5.26,21.46,7.93,33.13,7.93
	c28.9,0,55.12-17.08,66.8-43.52l1.83,0.81C1182.27,546.44,1155.33,563.99,1125.64,563.99z"/>
<circle class="st5" cx="1115.31" cy="482.69" r="23.25"/>
<path class="st6" d="M983.7,461.41c-0.96-2.59,0.37-5.47,2.96-6.42c2.59-0.96,5.47,0.37,6.42,2.96c0.96,2.59-0.37,5.47-2.96,6.42
	C987.53,465.33,984.66,464,983.7,461.41z"/>
<circle class="st5" cx="1101.67" cy="409.37" r="13"/>
<path class="st6" d="M976.28,454.96L976.28,454.96c-0.75,0.02-1.51,0.16-2.26,0.43c-3.63,1.34-5.48,5.36-4.14,8.99
	c1.34,3.63,5.36,5.48,8.99,4.14l11.26-4.15l-1.85-9.69L976.28,454.96z"/>
<ellipse transform="matrix(0.9748 -0.223 0.223 0.9748 -69.7901 245.3246)" class="st6" cx="1051.41" cy="431.7" rx="9.45" ry="9.45"/>
<polygon class="st6" points="1095.62,397.86 1047.02,423.33 1054.68,440.56 1106.17,421.56 "/>
<polygon class="st6" points="1047.02,423.33 986.07,455.26 990.12,464.37 1054.68,440.56 "/>
<circle class="st2" cx="1078.89" cy="653" r="6.5"/>
<g>
	<g>
		<path class="st3" d="M1088.69,409.97l3.37,72.72h46.5l19.22-76.37c1.27-5.05-2.55-9.95-7.76-9.95h-48.34
			C1094.26,396.37,1088.35,402.56,1088.69,409.97z"/>
	</g>
</g>
<path class="st3" d="M1113.87,404.87c2.48,6.74-0.96,14.21-7.7,16.7c-6.74,2.49-14.21-0.96-16.7-7.7c-2.48-6.74,0.96-14.21,7.7-16.7
	C1103.91,394.68,1111.38,398.13,1113.87,404.87z"/>
<g>
	<g>
		<path class="st2" d="M1092.06,482.69L1092.06,482.69h20.56h25.94l2.51,1.95c8.44,6.56,13.38,16.65,13.38,27.34v10
			c0,7.73-6.27,14-14,14h-40.39c-7.73,0-14-6.27-14-14l0-13.7C1086.06,499.4,1088.11,490.64,1092.06,482.69z"/>
	</g>
</g>
<path class="st3" d="M1113.83,413.97l-9.73,25.72l-0.21-0.08c-1.79,4.95-6.53,8.48-12.09,8.48c-7.11,0-12.86-5.76-12.86-12.86
	c0-1.67,0.32-3.26,0.9-4.72l-0.07-0.02l9.73-25.72L1113.83,413.97z"/>
<circle class="st3" cx="1149.61" cy="409.37" r="13"/>
<ellipse transform="matrix(0.5805 -0.8143 0.8143 0.5805 114.6994 1144.7938)" class="st6" cx="1168.31" cy="461.09" rx="9.45" ry="9.45"/>
<polygon class="st6" points="1162.1,405.76 1177.38,458.47 1159.65,464.87 1137.7,414.57 "/>
<polygon class="st3" points="1137.7,414.57 1152.01,447.36 1172.06,440.13 1162.1,405.76 "/>
<polygon class="st3" points="1106.17,421.56 1072.6,433.95 1063.94,414.47 1095.62,397.86 "/>
<g>
	<g>
		<circle class="st2" cx="1100.06" cy="521.98" r="14"/>
	</g>
</g>
<g>
	<g>
		<circle class="st2" cx="1140.45" cy="521.98" r="14"/>
	</g>
</g>
<g>
	<g>
		<path class="st4" d="M1072.39,653h13v9h-18.21c-1.54,0-2.79-1.25-2.79-2.79v0c0-1,0.53-1.92,1.4-2.42L1072.39,653z"/>
	</g>
</g>
<g>
	<g>
		<circle class="st2" cx="1054.08" cy="524.67" r="11.31"/>
	</g>
</g>
<polygon class="st2" points="1042.96,527.15 1072.47,654 1085.31,651.99 1065.31,523.67 "/>
<circle class="st2" cx="1111.62" cy="653" r="6.5"/>
<g>
	<g>
		<path class="st4" d="M1105.12,653h13v9h-18.21c-1.54,0-2.79-1.25-2.79-2.79v0c0-1,0.53-1.92,1.4-2.42L1105.12,653z"/>
	</g>
</g>
<g>
	<g>
		<circle class="st2" cx="1086.8" cy="524.67" r="11.31"/>
	</g>
</g>
<polygon class="st2" points="1075.69,527.15 1105.19,654 1118.04,651.99 1098.04,523.67 "/>
<g>
	<rect x="1107.36" y="369.28" class="st6" width="22" height="27.09"/>
	<circle class="st6" cx="1118.36" cy="396.37" r="11"/>
</g>
<circle class="st2" cx="1138.15" cy="366.39" r="15.66"/>
<path class="st2" d="M1079.25,345.87c0-19.09,15.47-34.56,34.56-34.56c19.09,0,34.56,15.47,34.56,34.56
	c0,19.09-15.47,34.56-34.56,34.56l-17.62-17.62C1086.83,362.81,1079.24,355.23,1079.25,345.87L1079.25,345.87z"/>
<path class="st6" d="M1130.36,362.93h-5v-10h5c2.76,0,5,2.24,5,5l0,0C1135.36,360.69,1133.12,362.93,1130.36,362.93z"/>
<path class="st6" d="M1091.77,333.91h37.58v48.51h-23.34c-9.34,0-16.75-7.88-16.18-17.21L1091.77,333.91z"/>
<path class="st2" d="M1129.36,352.93h1v-28.88h-29.77c-7.86,0-14.23,6.37-14.23,14.23v0.57h1c8.51,0,16.8,2.78,23.59,7.91v0
	C1116.25,350.76,1122.71,352.93,1129.36,352.93L1129.36,352.93z"/>
<polygon class="st3" points="508.12,510.59 552.07,662 557.12,662 521.18,510.59 "/>
<polygon class="st3" points="462.18,510.59 418.24,662 413.19,662 449.12,510.59 "/>
<circle class="st6" cx="485.15" cy="488.99" r="74"/>
<path class="st2" d="M485.15,563.99c-23.46,0-45.13-10.67-59.46-29.29l1.58-1.22c13.95,18.12,35.04,28.51,57.88,28.51
	c29.94,0,56.53-17.94,67.73-45.71l1.85,0.75C543.23,545.56,515.92,563.99,485.15,563.99z"/>
<path class="st2" d="M420.01,526.19c-6.45-11.27-9.86-24.13-9.86-37.2c0-4.62,0.42-9.24,1.25-13.73l1.97,0.36
	c-0.81,4.38-1.22,8.88-1.22,13.37c0,12.71,3.32,25.23,9.6,36.2L420.01,526.19z"/>
<path class="st2" d="M521.61,508.73c0,4.83-0.94,9.43-2.64,13.65h-67.64c-1.7-4.22-2.64-8.82-2.64-13.65
	c0-20.14,16.32-36.46,36.46-36.46C505.28,472.27,521.61,488.59,521.61,508.73z"/>
<circle class="st2" cx="485.15" cy="508.73" r="10"/>
<ellipse transform="matrix(0.9752 -0.2215 0.2215 0.9752 -85.7686 136.8264)" class="st4" cx="567.1" cy="450.78" rx="13.64" ry="13.64"/>
<polygon class="st3" points="502.82,432.04 560.7,462.82 575.72,440.2 524.84,398.87 "/>
<ellipse transform="matrix(0.9038 -0.4279 0.4279 0.9038 -128.048 259.0136)" class="st3" cx="512.21" cy="414.38" rx="20" ry="20"/>
<polygon class="st3" points="469.47,430.82 415.58,468.14 398.02,447.43 443.73,400.45 "/>
<ellipse transform="matrix(0.9918 -0.1275 0.1275 0.9918 -49.1094 61.8082)" class="st3" cx="458.08" cy="414.38" rx="20" ry="20"/>
<circle class="st2" cx="463" cy="522.38" r="13.65"/>
<circle class="st2" cx="507.28" cy="522.38" r="13.65"/>
<path class="st3" d="M526.5,409.07l-4.89,99.66h-72.92l-4.89-99.66c-0.39-7.99,5.98-14.69,13.98-14.69h54.73
	C520.52,394.38,526.89,401.07,526.5,409.07z"/>
<path class="st2" d="M521.61,508.73l-0.67,13.65l-0.03,0.67c-0.36,7.27-6.36,12.98-13.63,12.98h-44.25
	c-7.28,0-13.28-5.71-13.63-12.98l-0.03-0.67l-0.67-13.65H521.61z"/>
<ellipse transform="matrix(0.2306 -0.9731 0.9731 0.2306 -240.043 1000.4158)" class="st2" cx="512.58" cy="652" rx="8.44" ry="8.44"/>
<circle class="st2" cx="509.46" cy="524.66" r="11.57"/>
<polygon class="st2" points="504.15,652 497.9,524.66 521.03,524.66 521.03,652 "/>
<path class="st6" d="M529.52,662h-25.38v-10h16.89l9.69,5.29c0.81,0.44,1.31,1.29,1.31,2.2l0,0C532.03,660.87,530.9,662,529.52,662z
	"/>
<ellipse transform="matrix(0.3893 -0.9211 0.9211 0.3893 -154.5805 852.3936)" class="st2" cx="565.52" cy="542.77" rx="8.44" ry="8.44"/>
<path class="st2" d="M448.4,492.1c6.02,2.14,9.16,8.76,7.02,14.77c-2.14,6.02-8.76,9.16-14.77,7.02c-6.02-2.14-9.16-8.76-7.02-14.77
	C435.76,493.1,442.38,489.96,448.4,492.1z"/>
<polygon class="st2" points="562.69,550.71 440.64,513.89 448.4,492.1 568.35,534.81 "/>
<path class="st6" d="M569.26,562.08l8.51-23.91l-9.42-3.35l-5.66,15.91l1.73,10.9c0.14,0.91,0.77,1.66,1.64,1.97l0,0
	C567.35,564.07,568.79,563.39,569.26,562.08z"/>
<rect x="474.93" y="367.31" transform="matrix(0.9983 0.0578 -0.0578 0.9983 22.8465 -27.5573)" class="st6" width="25" height="27.09"/>
<path class="st6" d="M499.13,395.1c-0.4,6.89-6.31,12.16-13.2,11.76c-6.89-0.4-12.16-6.31-11.76-13.2
	c0.4-6.89,6.31-12.16,13.2-11.76C494.26,382.3,499.53,388.21,499.13,395.1z"/>
<polygon class="st2" points="452.41,531 435.56,510.31 452.24,494.38 472.11,512.22 "/>
<g>
	<polygon class="st3" points="374.85,470.58 373.8,480.58 353.91,662 348.86,662 363.79,470.58 	"/>
	<polygon class="st3" points="1246.81,470.58 1247.86,480.58 1267.75,662 1272.8,662 1257.87,470.58 	"/>
</g>
<rect x="353.01" y="470.58" class="st4" width="913.86" height="10"/>
<path class="st3" d="M421.2,459.55c-1.45,7.39-8.62,12.21-16.01,10.76c-7.39-1.45-12.21-8.62-10.76-16.01
	c1.45-7.39,8.62-12.21,16.01-10.76C417.83,444.99,422.64,452.16,421.2,459.55z"/>
<g>
	<defs>
		<polygon id="SVGID_3_" points="613.2,470.58 517.2,470.58 520.39,402.08 616.39,402.08 		"/>
	</defs>
	<clipPath id="SVGID_4_">
		<use xlink:href="#SVGID_3_"  style="overflow:visible;"/>
	</clipPath>
</g>
<rect x="495.45" y="464.58" class="st2" width="48" height="6"/>
<polygon class="st11" points="638.76,402.09 636.27,455.52 635.57,470.59 539.57,470.59 542.76,402.09 "/>
<ellipse transform="matrix(0.7153 -0.6988 0.6988 0.7153 -137.1832 535.9444)" class="st0" cx="589.16" cy="436.33" rx="7.17" ry="6.84"/>
<polygon class="st3" points="636.27,455.52 635.57,470.59 539.57,470.59 "/>
<g>
	<defs>
		<polygon id="SVGID_5_" points="991.25,470.58 1087.25,470.58 1084.06,402.08 988.06,402.08 		"/>
	</defs>
	<clipPath id="SVGID_6_">
		<use xlink:href="#SVGID_5_"  style="overflow:visible;"/>
	</clipPath>
</g>
<rect x="1061" y="464.58" transform="matrix(-1 -1.224647e-16 1.224647e-16 -1 2170.0005 935.169)" class="st2" width="48" height="6"/>
<polygon class="st11" points="1064.87,470.59 968.87,470.59 968.86,470.48 968.17,455.52 965.68,402.09 1061.68,402.09 
	1064.17,455.63 "/>
<ellipse transform="matrix(0.6988 -0.7153 0.7153 0.6988 -6.3259 857.6448)" class="st0" cx="1015.28" cy="436.33" rx="6.84" ry="7.17"/>
<polygon class="st3" points="1064.87,470.59 968.17,470.59 968.86,470.48 1064.17,455.63 "/>
<path class="st2" d="M514.01,348.15l-3.62,0.29l-1.97-24.46l3.62-0.29c6.75-0.54,12.67,4.49,13.21,11.24l0,0
	C525.8,341.69,520.77,347.61,514.01,348.15z"/>
<path class="st2" d="M486.08,373.66l-9.06,0.73c-5,0.4-9.39-3.33-9.79-8.33l-0.8-9.92l18.12-1.46L486.08,373.66z"/>
<path class="st2" d="M511.51,347.72l-9.84,0.79l-2.53-31.48l8.79-0.71c6-0.48,11.26,3.99,11.75,10l0.87,10.78
	C520.99,342.53,516.94,347.28,511.51,347.72z"/>
<path class="st6" d="M510.84,380.93l-32.16,2.59l-2.92-36.22c-0.89-11.02,7.32-20.67,18.34-21.55h0
	c10.64-0.86,20.08,6.79,21.45,17.38l3.57,27.58C519.79,375.86,516.01,380.52,510.84,380.93z"/>
<path class="st7" d="M517.77,360.27l-2.22-17.15L517.77,360.27z"/>
<path class="st2" d="M482.03,323.29l2.71-0.22l2.75,34.1l-20.83,1.68l-1.29-15.99C464.56,332.86,472.02,324.1,482.03,323.29z"/>
<path class="st6" d="M476.89,361.45l5.44-0.44l-0.44-5.44c-0.24-3-2.87-5.24-5.87-5l0,0c-3,0.24-5.24,2.87-5,5.87l0,0
	C471.26,359.45,473.89,361.69,476.89,361.45z"/>
<path class="st2" d="M517.95,337.41l-20.64,1.66c-8.41,0.68-15.8-5.61-16.48-14.02c-0.32-4,2.66-7.51,6.66-7.83
	c4-0.32,7.51,2.66,7.83,6.66c0.03,0.42,0.4,0.73,0.82,0.7l20.64-1.66L517.95,337.41z"/>
<path class="st2" d="M509.67,330.78l-10.27,0.83c-4,0.32-7.51-2.66-7.83-6.66c-0.32-4,2.66-7.51,6.66-7.83l10.27-0.83
	c4-0.32,7.51,2.66,7.83,6.66C516.65,326.95,513.67,330.46,509.67,330.78z"/>
<path class="st2" d="M520.07,378.01c0.53,4.12-2.49,7.85-6.63,8.19l-14.4,1.16c-8,0.64-15.02-5.32-15.66-13.33l-1.37-16.97
	l5.43-0.44l0,0c0.27,3.34,3.19,5.82,6.53,5.55l23.8-1.92L520.07,378.01z"/>
<g>
	<path class="st6" d="M508.19,460.32c-1.24-4.24-5.68-6.67-9.92-5.43c-4.24,1.24-6.67,5.68-5.43,9.92s5.68,6.67,9.92,5.43
		C507,469,509.43,464.56,508.19,460.32z"/>
	<path class="st6" d="M492.28,462.89c0.93,3.18-0.89,6.51-4.07,7.44c-3.18,0.93-6.51-0.89-7.44-4.07c-0.93-3.18,0.89-6.51,4.07-7.44
		C488.02,457.88,491.35,459.7,492.28,462.89z"/>
	<polygon class="st6" points="500.51,470.56 486.52,470.57 484.84,458.81 498.26,454.88 	"/>
</g>
<polygon class="st3" points="410.43,443.55 487.67,458.69 486.52,470.58 482.46,470.58 476.47,470.57 407.82,470.58 "/>
<polygon class="st6" points="486.52,470.57 487.67,458.68 482.47,457.66 482.47,470.57 "/>
<rect x="439" y="444.55" class="st3" width="11.33" height="11.33"/>
<polygon class="st2" points="1098.41,508.07 1052.75,513.44 1054.08,535.98 1100.06,535.98 "/>
<path class="st6" d="M1094.78,463.93c-0.91,2.61,0.48,5.46,3.08,6.36c2.61,0.91,5.46-0.48,6.36-3.08c0.91-2.61-0.48-5.46-3.08-6.36
	C1098.53,459.94,1095.68,461.32,1094.78,463.93z"/>
<path class="st6" d="M1085.21,470.14c0.75,0.26,1.52,0.38,2.27,0.38l0,0.01l12,0.04l1.66-9.73l-11.34-3.93
	c-3.65-1.27-7.64,0.67-8.91,4.32C1079.63,464.88,1081.56,468.87,1085.21,470.14z"/>
<polygon class="st6" points="1168.3,470.54 1099.5,470.57 1098.85,460.61 1167.09,451.72 "/>
<polygon class="st3" points="786.34,510.59 830.28,662 835.33,662 799.4,510.59 "/>
<polygon class="st3" points="740.39,510.59 696.45,662 691.4,662 727.33,510.59 "/>
<path class="st5" d="M742.56,508.73c0,4.83,0.94,9.43,2.65,13.65h67.62c1.71-4.22,2.65-8.82,2.65-13.65
	c0-20.14-16.32-36.46-36.46-36.46C758.89,472.27,742.56,488.59,742.56,508.73z"/>
<circle class="st2" cx="779.02" cy="508.73" r="10"/>
<ellipse transform="matrix(0.0819 -0.9966 0.9966 0.0819 188.8201 1118.8104)" class="st6" cx="701.68" cy="456.92" rx="13.64" ry="13.64"/>
<polygon class="st6" points="763.34,430.82 709.44,468.13 691.89,447.41 737.61,400.44 "/>
<ellipse transform="matrix(0.3213 -0.947 0.947 0.3213 117.9217 993.3014)" class="st9" cx="751.96" cy="414.38" rx="20" ry="20"/>
<g>
	
		<ellipse transform="matrix(0.8377 -0.5461 0.5461 0.8377 -132.2298 493.5349)" class="st6" cx="764.27" cy="469.25" rx="8" ry="8"/>
	<path class="st6" d="M771.73,465.75c0.64,3.25,3.79,5.37,7.04,4.74c3.25-0.64,5.37-3.79,4.74-7.04c-0.64-3.25-3.79-5.37-7.04-4.74
		C773.21,459.35,771.09,462.5,771.73,465.75z"/>
	<polygon class="st6" points="767.95,476.35 780.38,469.93 776.46,458.71 762.74,461.4 	"/>
</g>
<path class="st6" d="M842.94,459.59c1.45,7.39,8.61,12.21,16.01,10.77c7.39-1.45,12.21-8.61,10.77-16.01s-8.61-12.21-16.01-10.77
	C846.32,445.03,841.5,452.2,842.94,459.59z"/>
<polygon class="st6" points="794.69,430.81 848.55,468.18 866.13,447.48 820.46,400.46 "/>
<polygon class="st9" points="794.69,430.81 839.41,461.84 858.37,439.49 820.46,400.46 "/>
<polygon class="st9" points="763.34,430.82 718.59,461.8 699.65,439.43 737.61,400.44 "/>
<ellipse transform="matrix(0.9474 -0.3201 0.3201 0.9474 -90.223 279.7913)" class="st9" cx="806.09" cy="414.38" rx="20" ry="20"/>
<circle class="st5" cx="801.17" cy="522.38" r="13.65"/>
<circle class="st5" cx="756.89" cy="522.38" r="13.65"/>
<path class="st9" d="M737.67,409.07l4.89,99.66h72.92l4.89-99.66c0.39-7.99-5.98-14.69-13.98-14.69h-54.73
	C743.66,394.38,737.28,401.07,737.67,409.07z"/>
<path class="st5" d="M742.56,508.73l0.67,13.65l0.03,0.67c0.36,7.27,6.36,12.98,13.63,12.98h44.25c7.28,0,13.28-5.71,13.63-12.98
	l0.03-0.67l0.67-13.65H742.56z"/>
<path class="st2" d="M930.75,610.6c-8.05,0-14.6-6.55-14.6-14.6c0-8.05,6.55-14.6,14.6-14.6c8.05,0,14.6,6.55,14.6,14.6
	C945.35,604.05,938.8,610.6,930.75,610.6z M930.75,583.39c-6.95,0-12.6,5.65-12.6,12.6s5.65,12.6,12.6,12.6
	c6.95,0,12.6-5.65,12.6-12.6S937.7,583.39,930.75,583.39z"/>
<rect x="882.75" y="596" class="st6" width="96" height="66"/>
<rect x="968.75" y="596" class="st2" width="10" height="66"/>
<rect x="882.75" y="628" class="st2" width="86" height="2"/>
<rect x="918.75" y="628" class="st0" width="14" height="9"/>
<rect x="1146.04" y="423.55" transform="matrix(0.9165 -0.4 0.4 0.9165 -78.6305 495.1758)" class="st0" width="2" height="24.85"/>
<rect x="456.04" y="426.77" transform="matrix(0.1922 -0.9814 0.9814 0.1922 -75.0449 814.1938)" class="st0" width="2" height="51.82"/>
<rect x="478.76" y="507.33" transform="matrix(0.2888 -0.9574 0.9574 0.2888 -162.0856 833.1931)" class="st4" width="2" height="36.73"/>
<g>
	<path class="st11" d="M212.69,334.72c-2.94,13.63-7.87,26.75-11.8,40.12c-4.05,13.77-8.14,27.77-8.09,42.12
		c0.06,18.66,7.47,37.21,20.28,50.78c5.02,5.32,10.88,9.97,14.75,16.17c3.87,6.21,5.29,14.73,0.97,20.63
		c-6.23,8.51-19.56,6.67-28.67,11.99c-11.47,6.7-13.07,23.77-6.53,35.33s36.33,44.64,78.83,36.45
		c19.02-3.67,44.81-21.77,44.07-41.13c-0.77-20.16-20.01-36.48-19.36-56.65c0.43-13.21,9.31-24.37,17-35.12
		c7.69-10.75,14.85-23.85,11.31-36.58c-5.21-18.74-29.35-24.53-41.04-40.08c-7.53-10.01-9.18-23.18-9.65-35.7
		c-0.47-12.52-0.15-25.35-4.32-37.16C260.32,277.25,224.36,280.67,212.69,334.72z"/>
</g>
<rect x="256.36" y="406.75" class="st2" width="2" height="217.25"/>
<path class="st2" d="M258.35,469.53l-1.97-0.33c3.23-19.65,25.59-31.88,26.54-32.39l0.95,1.76
	C283.63,438.7,261.42,450.85,258.35,469.53z"/>
<path class="st2" d="M256.38,555.08c-2.18-13.27-18.02-21.94-18.18-22.03l0.95-1.76c0.69,0.37,16.86,9.21,19.21,23.47L256.38,555.08
	z"/>
<path class="st9" d="M268.45,662h-22.51c-13.67,0-24.75-11.08-24.75-24.75V616.5h72v20.75C293.19,650.92,282.11,662,268.45,662z"/>
<path class="st2" d="M233.98,660.05c-8.5-4.47-13.78-13.21-13.78-22.8v-7.63h2v7.63c0,8.85,4.87,16.91,12.71,21.03L233.98,660.05z"
	/>
<rect x="221.19" y="623" class="st0" width="72" height="2"/>
<rect x="102.81" y="662" class="st11" width="1243.75" height="2"/>
<g>
	<path class="st3" d="M746.36,678h419.27H746.36z"/>
	<rect x="746.36" y="677" class="st11" width="419.27" height="2"/>
</g>
<g>
	<path class="st3" d="M1064.39,693.24h182.42H1064.39z"/>
	<rect x="1064.39" y="692.24" class="st11" width="182.42" height="2"/>
</g>
<g>
	<path class="st3" d="M674.6,693.24h333.68H674.6z"/>
	<rect x="674.6" y="692.24" class="st11" width="333.68" height="2"/>
</g>
<g>
	<path class="st3" d="M1225.7,678.23h37.5H1225.7z"/>
	<rect x="1225.7" y="677.23" class="st11" width="37.5" height="2"/>
</g>
<g>
	<path class="st3" d="M583.58,678h129.25H583.58z"/>
	<rect x="583.58" y="677" class="st11" width="129.25" height="2"/>
</g>
<path class="st0" d="M1091.8,449.09c-7.64,0-13.86-6.22-13.86-13.86c0-1.38,0.2-2.74,0.61-4.05l-0.03-0.01l0.31-1.04l5.86-15.5
	l1.87,0.71l-5.48,14.48l0.02,0.01l-0.34,1.05c-0.55,1.39-0.83,2.85-0.83,4.35c0,6.54,5.32,11.86,11.86,11.86
	c0.9,0,1.79-0.1,2.66-0.3l0.45,1.95C1093.89,448.97,1092.85,449.09,1091.8,449.09z"/>
<rect x="247.33" y="615.5" class="st2" width="45.86" height="2"/>
<path class="st1" d="M941.16,182.52c-4.19-9.6-5.53-16.96-2.56-23.02c8.82-17.98,53.8-20.86,82.6-3.37
	c40.17,24.4,50.79,89.56,32.4,104.03C1032.22,277,962.8,232.08,941.16,182.52z"/>
<path class="st0" d="M515.34,365.41c0.27,3.03-1.97,5.7-4.99,5.96c-3.03,0.27-5.7-1.97-5.96-4.99L515.34,365.41z"/>
<path class="st0" d="M1106.67,366.99c0.01,3.04-2.45,5.5-5.49,5.51s-5.5-2.45-5.51-5.49L1106.67,366.99z"/>
<rect x="524.26" y="418.75" transform="matrix(0.0464 -0.9989 0.9989 0.0464 97.4998 941.6255)" class="st0" width="35.36" height="2"/>
<rect x="844.87" y="411.95" class="st0" width="28.33" height="2"/>
<rect x="851.87" y="418.12" class="st0" width="31.17" height="2"/>
<rect x="860.78" y="424.29" class="st0" width="28.09" height="2"/>
<rect x="865.2" y="430.45" class="st0" width="8" height="2"/>
<rect x="878.04" y="430.45" class="st0" width="10.83" height="2"/>
<rect x="878.87" y="411.95" class="st0" width="10" height="2"/>
<g>
	<path class="st1" d="M353.01,480.58h231.86H353.01z"/>
	<rect x="353.01" y="479.58" class="st2" width="231.86" height="2"/>
</g>
<g>
	<path class="st1" d="M601.2,480.58h15.19H601.2z"/>
	<rect x="601.2" y="479.58" class="st2" width="15.19" height="2"/>
</g>
<g>
	<path class="st1" d="M631.37,480.58h60.52H631.37z"/>
	<rect x="631.37" y="479.58" class="st2" width="60.52" height="2"/>
</g>
<g>
	<path class="st1" d="M871.43,480.58h-64.19H871.43z"/>
	<rect x="807.24" y="479.58" class="st2" width="64.19" height="2"/>
</g>
<g>
	<path class="st1" d="M1031.2,480.58h185.67H1031.2z"/>
	<rect x="1031.2" y="479.58" class="st2" width="185.67" height="2"/>
</g>
<g>
	<path class="st1" d="M1225.04,480.58h41.84H1225.04z"/>
	<rect x="1225.04" y="479.58" class="st2" width="41.84" height="2"/>
</g>
<g>
	<circle class="st10" cx="763.36" cy="488.99" r="74"/>
	<path class="st0" d="M829.45,524.48l-1.76-0.95c5.67-10.54,8.67-22.49,8.67-34.54c0-40.25-32.75-73-73-73
		c-7.1,0-14.12,1.02-20.86,3.02l-0.57-1.92c6.92-2.06,14.13-3.11,21.43-3.11c41.36,0,75,33.64,75,75
		C838.36,501.37,835.28,513.64,829.45,524.48z"/>
	<path class="st9" d="M775.36,442.41h-24c-2.76,0-5-2.24-5-5l0,0c0-2.76,2.24-5,5-5h24c2.76,0,5,2.24,5,5l0,0
		C780.36,440.17,778.12,442.41,775.36,442.41z"/>
</g>
<rect x="258.08" y="662" class="st2" width="51.62" height="2"/>
<rect x="318.7" y="662" class="st2" width="12.75" height="2"/>
<rect x="479.76" y="662" class="st2" width="121.44" height="2"/>
<rect x="789.15" y="662" class="st2" width="84.8" height="2"/>
<rect x="904.45" y="662" class="st2" width="82.25" height="2"/>
<rect x="996.2" y="662" class="st2" width="17" height="2"/>
<rect x="1078.89" y="662" class="st2" width="75.56" height="2"/>
<rect x="1165.63" y="662" class="st2" width="14.24" height="2"/>
<rect x="447.11" y="662" class="st2" width="14.24" height="2"/>
<rect x="1062.28" y="402.05" transform="matrix(0.9989 -0.0465 0.0465 0.9989 -19.1491 49.9413)" class="st2" width="2" height="68.57"/>
</svg>
